<svg version="1.1" id="Layer_1" xmlns="http://www.w3.org/2000/svg" xmlns:xlink="http://www.w3.org/1999/xlink" x="0px" y="0px"width="18px" height="18px" viewBox="0 0 18 18" enable-background="new 0 0 18 18" xml:space="preserve"><path fill="#FFFFFF" d="M17.626,16.566l-3.739-3.74c2.506-3.041,2.339-7.56-0.503-10.403c-1.464-1.464-3.41-2.27-5.48-2.27s-4.017,0.806-5.48,2.27c-1.464,1.463-2.27,3.41-2.27,5.48s0.806,4.016,2.27,5.48c1.463,1.464,3.41,2.27,5.48,2.27c1.818,0,3.54-0.622,4.924-1.765l3.738,3.739c0.146,0.146,0.338,0.22,0.53,0.22c0.191,0,0.384-0.073,0.53-0.22C17.919,17.334,17.919,16.859,17.626,16.566z M3.485,12.323c-1.181-1.181-1.831-2.75-1.831-4.419s0.65-3.239,1.831-4.419s2.75-1.831,4.419-1.831s3.239,0.65,4.419,1.831c2.437,2.437,2.437,6.402,0,8.839c-1.181,1.181-2.75,1.83-4.419,1.83S4.665,13.504,3.485,12.323z"/></svg>